<svg xmlns="http://www.w3.org/2000/svg" xmlns:xlink="http://www.w3.org/1999/xlink" viewBox="0 0 565.72 291.38"><defs><style>.cls-1{fill:#a7a9ac;}.cls-2,.cls-20{fill:#fff;}.cls-13,.cls-2,.cls-4{stroke:#231f20;}.cls-13,.cls-2,.cls-4,.cls-5,.cls-9{stroke-miterlimit:10;}.cls-2,.cls-4{stroke-width:8px;}.cls-3{fill:#f2e2b3;}.cls-14,.cls-4{fill:#231f20;}.cls-10,.cls-5{fill:#414042;}.cls-5,.cls-9{stroke:#bcbec0;}.cls-13,.cls-5,.cls-9{stroke-width:0.25px;}.cls-6{fill:#d77057;}.cls-7{fill:#808285;}.cls-8{fill:#d1d3d4;}.cls-9{fill:#e6e7e8;}.cls-10{font-size:8px;font-family:Poppins-Regular, Poppins;}.cls-11{fill:#90d1bb;}.cls-12{fill:#f36f5b;}.cls-13{fill:url(#linear-gradient);}.cls-15{fill:#f4b656;}.cls-16{fill:#99673e;}.cls-17{fill:#c88c5d;}.cls-18{fill:#579b83;}.cls-19{fill:#71c6a5;}.cls-20{font-size:18px;font-family:Poppins-Bold, Poppins;font-weight:700;letter-spacing:0.14em;}.cls-21{fill:#00a651;}</style><linearGradient id="linear-gradient" x1="47.01" y1="258.19" x2="159.47" y2="258.19" gradientUnits="userSpaceOnUse"><stop offset="0" stop-color="#fff"/><stop offset="0" stop-color="#eff0f0"/><stop offset="0.03" stop-color="#c7c7c8"/><stop offset="0.06" stop-color="#9c9b9b"/><stop offset="0.1" stop-color="#777575"/><stop offset="0.14" stop-color="#585656"/><stop offset="0.18" stop-color="#413e3e"/><stop offset="0.22" stop-color="#302c2d"/><stop offset="0.26" stop-color="#262223"/><stop offset="0.32" stop-color="#231f20"/><stop offset="0.43" stop-color="#231f20"/></linearGradient></defs><g id="Layer_1" data-name="Layer 1"><ellipse class="cls-1" cx="282.86" cy="254.59" rx="282.86" ry="36.79"/><rect class="cls-2" x="78.07" y="54.99" width="312.98" height="193.59" rx="4.56"/><path class="cls-3" d="M83.73,57.18H385.39A2.83,2.83,0,0,1,388.22,60V241.15a0,0,0,0,1,0,0H80.9a0,0,0,0,1,0,0V60A2.83,2.83,0,0,1,83.73,57.18Z"/><rect class="cls-4" x="54.84" y="244.51" width="359.44" height="10.08" rx="5.04"/></g><g id="Layer_2" data-name="Layer 2"><rect class="cls-5" x="90.13" y="97.55" width="204.44" height="123.85" rx="2.96"/><path class="cls-6" d="M92.58,92.66H292.13a2.44,2.44,0,0,1,2.44,2.44v7.63a0,0,0,0,1,0,0H90.13a0,0,0,0,1,0,0V95.1A2.44,2.44,0,0,1,92.58,92.66Z"/><ellipse class="cls-7" cx="297.71" cy="310.61" rx="2.52" ry="2.62" transform="translate(-143.01 -13.89) rotate(-31.2)"/><ellipse class="cls-1" cx="305.36" cy="310.74" rx="2.52" ry="2.62" transform="translate(-141.97 -9.91) rotate(-31.2)"/><ellipse class="cls-8" cx="313.14" cy="310.88" rx="2.52" ry="2.62" transform="translate(-140.92 -5.86) rotate(-31.2)"/><rect class="cls-9" x="93.8" y="108.06" width="159.93" height="10.45" rx="5.23"/><text class="cls-10" transform="translate(97.56 115.57)">Incendium Academy</text></g><g id="Layer_3" data-name="Layer 3"><polygon class="cls-11" points="23.6 138.6 17.65 164.97 29.55 164.97 23.6 138.6"/><rect class="cls-11" x="22.47" y="87.15" width="2.25" height="48.7"/><rect class="cls-12" x="78.91" y="263.26" width="79.76" height="28.07" transform="translate(-175.03 -72.97) rotate(-39.75)"/><ellipse class="cls-12" cx="127.46" cy="287.72" rx="39.88" ry="9.93" transform="translate(-179.69 -65.02) rotate(-39.75)"/><path class="cls-13" d="M120.34,284.84,48.88,303.16a1.46,1.46,0,0,1-1.71-2.06l33.27-65a8.9,8.9,0,0,1,5.7-4.55l71.45-18.32a1.47,1.47,0,0,1,1.72,2.06l-33.28,65A8.88,8.88,0,0,1,120.34,284.84Z" transform="translate(-25.16 -213.04)"/><ellipse class="cls-14" cx="23.6" cy="140.13" rx="4.02" ry="6.66"/></g><g id="Layer_4" data-name="Layer 4"><polygon class="cls-15" points="420.39 27.84 418.17 10.29 427.06 19.07 432.39 8.07 435.13 27.84 420.39 27.84"/><polyline class="cls-16" points="512.64 248.59 431.16 248.59 415.61 27.84 422.18 27.84 435.18 248.59 517.95 241.15 495.02 26.07 422.18 27.84 435.18 248.59"/><polygon class="cls-17" points="388.22 30.07 417.61 27.84 431.5 248.59 401.97 248.59 388.22 30.07"/><polygon class="cls-11" points="451.07 250.8 473.8 250.95 462.43 51.84 439.57 53.61 451.07 250.8"/><polygon class="cls-18" points="462.43 51.84 517.95 47.38 530.61 238.52 473.8 250.95 462.43 51.84"/><rect class="cls-4" x="54.84" y="244.51" width="359.44" height="10.08" rx="5.04"/><rect class="cls-19" x="19.19" y="138.71" width="8.81" height="2.83" rx="1.41"/><text class="cls-20" transform="matrix(0.06, 1, -1, 0.06, 398.51, 60.3)">PHYSICS</text><text class="cls-20" transform="matrix(0.06, 1, -1, 0.06, 445.44, 78.94)">MATH</text><path class="cls-21" d="M618.89,240.89" transform="translate(-25.16 -213.04)"/></g></svg>